HIERARCHY
ROOT Hips
{
  OFFSET 0.0 0.0 0.0
  CHANNELS 6 Xposition Yposition Zposition Zrotation Yrotation Xrotation
  JOINT LHipJoint
  {
    OFFSET 0.0 0.0 0.0
    CHANNELS 3 Zrotation Yrotation Xrotation
    JOINT LeftUpLeg
    {
      OFFSET 1.363059998 -1.794630051 0.839290023
      CHANNELS 3 Zrotation Yrotation Xrotation
      JOINT LeftLeg
      {
        OFFSET 2.448110104 -6.726130009 0.0
        CHANNELS 3 Zrotation Yrotation Xrotation
        JOINT LeftFoot
        {
          OFFSET 2.562200069 -7.039589882 0.0
          CHANNELS 3 Zrotation Yrotation Xrotation
          JOINT LeftToeBase
          {
            OFFSET 0.157639995 -0.433109999 2.322550058
            CHANNELS 3 Zrotation Yrotation Xrotation
            End Site
            {
              OFFSET 0.0 -0.0 1.189659953
            }
          }
        }
      }
    }
  }
  JOINT RHipJoint
  {
    OFFSET 0.0 0.0 0.0
    CHANNELS 3 Zrotation Yrotation Xrotation
    JOINT RightUpLeg
    {
      OFFSET -1.305520058 -1.794630051 0.839290023
      CHANNELS 3 Zrotation Yrotation Xrotation
      JOINT RightLeg
      {
        OFFSET -2.54253006 -6.985549927 0.0
        CHANNELS 3 Zrotation Yrotation Xrotation
        JOINT RightFoot
        {
          OFFSET -2.568259954 -7.056230068 0.0
          CHANNELS 3 Zrotation Yrotation Xrotation
          JOINT RightToeBase
          {
            OFFSET -0.164729998 -0.452589989 2.363149881
            CHANNELS 3 Zrotation Yrotation Xrotation
            End Site
            {
              OFFSET -0.0 -0.0 1.21081996
            }
          }
        }
      }
    }
  }
  JOINT LowerBack
  {
    OFFSET 0.0 0.0 0.0
    CHANNELS 3 Zrotation Yrotation Xrotation
    JOINT Spine
    {
      OFFSET 0.028270001 2.035589933 -0.193379998
      CHANNELS 3 Zrotation Yrotation Xrotation
      JOINT Spine1
      {
        OFFSET 0.05672 2.04885006 -0.042750001
        CHANNELS 3 Zrotation Yrotation Xrotation
        JOINT Neck
        {
          OFFSET 0.0 0.0 0.0
          CHANNELS 3 Zrotation Yrotation Xrotation
          JOINT Neck1
          {
            OFFSET -0.054170001 1.74624002 0.172020003
            CHANNELS 3 Zrotation Yrotation Xrotation
            JOINT Head
            {
              OFFSET 0.10407 1.761360049 -0.123970002
              CHANNELS 3 Zrotation Yrotation Xrotation
              End Site
              {
                OFFSET 0.0372 1.770439982 -0.062410001
              }
            }
          }
        }
        JOINT LeftShoulder
        {
          OFFSET 0.0 0.0 0.0
          CHANNELS 3 Zrotation Yrotation Xrotation
          JOINT LeftArm
          {
            OFFSET 3.362410069 1.200889945 -0.311210006
            CHANNELS 3 Zrotation Yrotation Xrotation
            JOINT LeftForeArm
            {
              OFFSET 4.982999802 -0.0 -0.0
              CHANNELS 3 Zrotation Yrotation Xrotation
              JOINT LeftHand
              {
                OFFSET 3.483560085 -0.0 -0.0
                CHANNELS 3 Zrotation Yrotation Xrotation
                JOINT LeftFingerBase
                {
                  OFFSET 0.0 0.0 0.0
                  CHANNELS 3 Zrotation Yrotation Xrotation
                  JOINT LeftHandIndex1
                  {
                    OFFSET 0.715260029 -0.0 -0.0
                    CHANNELS 3 Zrotation Yrotation Xrotation
                    End Site
                    {
                      OFFSET 0.576659977 -0.0 -0.0
                    }
                  }
                }
                JOINT LThumb
                {
                  OFFSET 0.0 0.0 0.0
                  CHANNELS 3 Zrotation Yrotation Xrotation
                  End Site
                  {
                    OFFSET 0.585470021 -0.0 0.585470021
                  }
                }
              }
            }
          }
        }
        JOINT RightShoulder
        {
          OFFSET 0.0 0.0 0.0
          CHANNELS 3 Zrotation Yrotation Xrotation
          JOINT RightArm
          {
            OFFSET -3.136600018 1.374050021 -0.404650003
            CHANNELS 3 Zrotation Yrotation Xrotation
            JOINT RightForeArm
            {
              OFFSET -5.241899967 -0.0 -0.0
              CHANNELS 3 Zrotation Yrotation Xrotation
              JOINT RightHand
              {
                OFFSET -3.444169998 -0.0 -0.0
                CHANNELS 3 Zrotation Yrotation Xrotation
                JOINT RightFingerBase
                {
                  OFFSET 0.0 0.0 0.0
                  CHANNELS 3 Zrotation Yrotation Xrotation
                  JOINT RightHandIndex1
                  {
                    OFFSET -0.622529984 -0.0 -0.0
                    CHANNELS 3 Zrotation Yrotation Xrotation
                    End Site
                    {
                      OFFSET -0.501900017 -0.0 -0.0
                    }
                  }
                }
                JOINT RThumb
                {
                  OFFSET 0.0 0.0 0.0
                  CHANNELS 3 Zrotation Yrotation Xrotation
                  End Site
                  {
                    OFFSET -0.509559989 -0.0 0.509559989
                  }
                }
              }
            }
          }
        }
      }
    }
  }
}
MOTION
Frames: 4
Frame Time: 0.0083333
13.489962578 17.752799988 40.721088409 0.705199897 -27.412395477 -0.320699871 0.0 -0.0 0.0 -21.844707489 -10.529001236 -12.849998474 2.796500683 10.358100891 30.144199371 -0.247200072 -14.644697189 -7.175099373 0.149400011 2.490499496 6.863201141 0.0 -0.0 0.0 16.704397202 0.040800139 -23.218999863 -12.557800293 -18.616601944 67.746276855 0.012400094 -9.246999741 -12.954702377 -0.078599997 -1.808600187 4.976900578 1.3671 4.820700645 20.761198044 1.190600157 6.761199951 1.172199726 -1.427299857 3.139600039 -10.300398827 -3.470700026 -0.78640002 -8.151398659 -2.602299929 -0.57919991 2.383100033 -0.256199986 -0.407200098 2.154699802 0.0 -0.0 0.0 -55.259487152 -46.623588562 7.096591473 74.066467285 -59.018608093 -46.246673584 0.0 -0.0 29.539400101 9.35640049 -8.048998833 -1.321600199 -7.125 0.0 0.0 -12.643798828 21.888401031 7.191500187 0.0 -0.0 0.0 60.642410278 48.858703613 34.16910553 -85.425292969 59.920791626 -56.039196014 0.0 -0.0 11.581299782 -34.071502686 -10.840299606 7.249001026 7.125 -0.0 0.0 -6.355000496 -42.907600403 -0.329599023 
13.446862221 17.752700806 40.702987671 0.400800079 -26.506702423 -0.21070005 0.0 -0.0 0.0 -21.467803955 -10.729100227 -12.838300705 2.837100267 10.426502228 30.369098663 -0.275200218 -15.276501656 -7.407501698 0.07720001 1.792100191 4.931599617 0.0 -0.0 0.0 17.123001099 0.983000219 -23.748500824 -12.367898941 -18.541900635 67.150306702 -0.014299886 -9.233798981 -13.4083004 -0.062600002 -1.614699602 4.442098618 1.400200248 4.713799953 21.026798248 1.317300081 6.65030098 1.105900168 -1.30279994 3.081500053 -10.536198616 -3.510499954 -0.792300105 -8.309300423 -2.650199413 -0.553199947 2.946599722 -0.266600043 -0.409300059 2.371999979 0.0 -0.0 0.0 -55.650196075 -47.026996613 7.750994205 73.024101257 -58.882598877 -45.353595734 0.0 -0.0 30.30499649 12.043897629 -9.02409935 -1.916699886 -7.125 0.0 0.0 -10.665501595 20.823505402 6.285399914 0.0 -0.0 0.0 60.156421661 50.613899231 33.624118805 -81.887039185 59.749763489 -52.979846954 0.0 -0.0 12.214099884 -35.072002411 -9.455799103 6.579499722 7.125 -0.0 0.0 -7.24230051 -41.373695374 -0.651599944 
13.416462898 17.742399216 40.673988342 -0.0341 -25.380792618 -0.063300006 0.0 -0.0 0.0 -20.98800087 -11.039499283 -12.830802917 2.873399496 10.487197876 30.569194794 -0.327500165 -15.941102982 -7.371600628 0.040000003 1.290699959 3.549100161 0.0 -0.0 0.0 17.629499435 1.734099984 -24.247501373 -12.132699013 -18.44619751 66.408813477 -0.072499894 -9.050001144 -14.130501747 -0.055500001 -1.520700097 4.182700157 1.758900166 4.5333004 21.419904709 1.465899587 6.526899815 1.03429985 -1.340800047 3.0 -10.814500809 -3.596899748 -0.875200033 -8.424998283 -2.77229929 -0.625199974 3.427899361 -0.297300041 -0.461700141 2.555999756 0.0 -0.0 0.0 -56.248508453 -47.575195312 8.540103912 72.273017883 -58.778697968 -44.710899353 0.0 -0.0 30.683300018 13.687703133 -8.747302055 -2.121100664 -7.125 0.0 0.0 -9.502301216 21.032299042 5.534200668 0.0 -0.0 0.0 59.237098694 52.06760025 32.876399994 -78.710105896 59.512805939 -50.238609314 0.0 -0.0 12.720199585 -36.556304932 -9.083301544 6.676599026 7.125 -0.0 0.0 -8.564900398 -41.085800171 -0.833699167 
13.375163078 17.735900879 40.670188904 -0.067900002 -24.277399063 -0.1074 0.0 -0.0 0.0 -20.926599503 -11.36920166 -12.776498795 2.903200388 10.536601067 30.732501984 -0.421800107 -16.606796265 -6.817698479 0.088900007 1.922799706 5.292200089 0.0 -0.0 0.0 17.659402847 2.459000111 -24.733398438 -11.862101555 -18.331802368 65.551208496 -0.149200097 -8.736801147 -14.921998024 -0.072399989 -1.736400008 4.777700424 1.855400443 4.404300213 21.754001617 1.491100073 6.389200211 1.078200102 -1.351000071 2.925800085 -10.944900513 -3.892000198 -1.038299918 -9.097098351 -2.669699907 -0.747200012 4.340500832 -0.227900013 -0.549199998 2.996999741 0.0 -0.0 0.0 -56.794605255 -48.324893951 9.211098671 71.551177979 -58.674098969 -44.093978882 0.0 -0.0 31.279899597 15.015701294 -8.260801315 -2.207100153 -7.125 0.0 0.0 -8.564801216 21.468202591 4.889800072 0.0 -0.0 0.0 58.066608429 53.572208405 31.846515656 -75.857894897 59.230594635 -47.784187317 0.0 -0.0 13.295501709 -38.628604889 -9.601900101 7.592299938 7.125 -0.0 0.0 -10.482397079 -41.96320343 -0.794901967 
